<?xml version="1.0" encoding="UTF-8" standalone="no"?><!DOCTYPE svg PUBLIC "-//W3C//DTD SVG 1.1//EN" "http://www.w3.org/Graphics/SVG/1.1/DTD/svg11.dtd"><svg width="100%" height="100%" viewBox="0 0 333 343" version="1.1" xmlns="http://www.w3.org/2000/svg" xmlns:xlink="http://www.w3.org/1999/xlink" xml:space="preserve" xmlns:serif="http://www.serif.com/" style="fill-rule:evenodd;clip-rule:evenodd;stroke-linejoin:round;stroke-miterlimit:2;"><path d="M126.043,238.422c-25.315,-104.155 37.16,-210.172 141.255,-238.064c5.557,-1.489 11.269,1.808 12.758,7.365c10.083,37.631 8.605,75.656 -2.254,110.299c15.504,-0.513 31.345,1.222 47.101,5.443c5.557,1.489 8.855,7.201 7.366,12.758c-22.383,83.532 -106.51,134.17 -190.122,115.974l-9.286,16.084c0.188,0.182 0.375,0.365 0.56,0.55l0,0c16.855,16.855 16.855,44.222 0,61.076c-16.854,16.854 -44.221,16.854 -61.075,-0c-16.854,-16.854 -16.854,-44.221 -0,-61.076c5.759,-5.759 12.745,-9.55 20.121,-11.373l-0,-16.874c-51.897,-5.226 -92.467,-49.093 -92.467,-102.361c0,-56.783 46.101,-102.884 102.884,-102.884c21.878,0 42.171,6.844 58.853,18.508c-4.591,5.248 -8.91,10.716 -12.944,16.379c-13.102,-8.87 -28.905,-14.054 -45.909,-14.054c-45.285,0 -82.051,36.766 -82.051,82.051c0,45.284 36.766,82.05 82.051,82.05c3.056,-0 10.416,-0.002 10.416,-0.002l0,37.187c0.508,0.125 1.015,0.26 1.519,0.405l11.224,-19.441Zm-7.353,45.141c8.724,8.723 8.724,22.889 -0,31.612c-8.724,8.724 -22.889,8.724 -31.613,0c-8.723,-8.723 -8.723,-22.889 0,-31.612c8.724,-8.724 22.889,-8.724 31.613,-0Zm31.845,-50.921l0,-0c22.933,-65.251 90.434,-104.223 158.41,-91.458l-158.41,91.458Zm40.82,-86.016l71.047,-123.056c-76.666,25.541 -125.377,99.539 -120.85,178.215c12.25,-22.378 29.458,-41.116 49.803,-55.159Z" style="fill:#548459;"/></svg>